# Blender v2.54 (sub 0) OBJ File: 'bee3.blend'
# www.blender.org
g Bee_Wings_Plane_Plane.002
v 1.376585 3.388472 -0.613502
v -1.445337 3.285314 -0.613502
v 0.244508 2.313632 -0.613502
v -0.221922 2.315706 -0.613502
v 0.054390 2.513872 0.352931
v -0.050418 2.532102 0.352931
v 1.186468 3.588713 0.352931
v -1.273833 3.501710 0.352931
v 1.376585 3.388472 -0.613502
v -1.445337 3.285314 -0.613502
v 1.186468 3.588713 0.352931
v -1.273833 3.501710 0.352931
v 0.054390 2.513872 0.352931
v -0.050418 2.532102 0.352931
v 0.244508 2.313632 -0.613502
v -0.221922 2.315706 -0.613502
v 0.232771 2.483066 0.235294
v 0.179321 2.480853 0.046240
v 0.297081 2.662665 -0.016249
v 0.354692 2.665198 0.233784
v -0.320647 2.662665 -0.016249
v -0.202887 2.480853 0.046240
v -0.256336 2.483066 0.235294
v -0.378258 2.665198 0.233784
v 0.203871 2.470395 0.426120
v 0.262591 2.602091 0.479545
v -0.227436 2.470395 0.426120
v -0.286157 2.602091 0.479545
v 0.289463 2.854050 0.065021
v 0.288212 2.872759 0.259857
v -0.311778 2.872759 0.259856
v -0.313028 2.854050 0.065021
v 0.254940 2.778854 0.441923
v -0.278505 2.778854 0.441923
v 0.172585 2.446184 -0.100736
v 0.218264 2.587220 -0.154803
v -0.196150 2.446184 -0.100736
v -0.241830 2.587220 -0.154803
v 0.240204 2.334924 -0.195770
v 0.277203 2.573648 -0.294267
v -0.263770 2.334924 -0.195770
v -0.300769 2.573648 -0.294267
v 0.223223 2.390396 -0.572097
v 0.197488 2.250243 -0.500016
v 0.305861 2.113859 -0.577295
v 0.388872 2.275341 -0.729651
v -0.329426 2.113859 -0.577295
v -0.221054 2.250243 -0.500016
v -0.246788 2.390396 -0.572097
v -0.412438 2.275341 -0.729651
v 0.434669 1.919588 -0.712252
v 0.544356 2.144651 -0.970249
v -0.458235 1.919588 -0.712252
v -0.567921 2.144651 -0.970249
v 0.460553 1.648751 -1.015654
v 0.534569 1.849038 -1.267262
v -0.484118 1.648751 -1.015654
v -0.558135 1.849038 -1.267262
v 0.332064 1.482194 -1.313786
v 0.331836 1.592636 -1.446248
v -0.355629 1.482194 -1.313786
v -0.355402 1.592636 -1.446248
v 0.077106 1.352839 -1.517086
v 0.077260 1.386427 -1.550841
v -0.100672 1.352839 -1.517086
v -0.100826 1.386427 -1.550841
v -0.000141 1.241429 -1.661473
v 0.001362 1.248186 -1.667493
v -0.023425 1.241429 -1.661473
v -0.024928 1.248186 -1.667493
v 0.245221 2.260890 -0.314082
v 0.277494 2.528261 -0.428195
v -0.301060 2.528261 -0.428195
v -0.268786 2.260890 -0.314082
v 0.125985 2.575076 0.621277
v 0.098022 2.415965 0.485092
v -0.121588 2.415965 0.485092
v -0.149551 2.575076 0.621277
v -0.011783 2.566017 0.696340
v -0.011783 2.388057 0.523996
v 0.135724 2.802024 0.510854
v -0.159290 2.802024 0.510854
v -0.011783 2.811827 0.559517
v 0.146883 2.725417 -0.096227
v 0.157930 2.896712 0.017930
v -0.181496 2.896712 0.017930
v -0.170449 2.725417 -0.096227
v -0.011783 2.770755 -0.130584
v -0.011783 2.932187 -0.015973
v 0.090654 2.381115 0.239084
v 0.070498 2.413317 0.029738
v -0.094063 2.413317 0.029738
v -0.114220 2.381115 0.239084
v -0.011783 2.345139 0.245904
v -0.011783 2.389809 0.009870
v -0.011783 2.963876 0.286432
v 0.146946 2.942928 0.271710
v -0.170512 2.942928 0.271710
v 0.126239 2.666467 -0.207951
v -0.011783 2.688530 -0.230661
v -0.149805 2.666467 -0.207951
v 0.081912 2.388204 -0.089723
v -0.105477 2.388204 -0.089723
v -0.011783 2.372207 -0.085086
v 0.107462 2.238474 -0.159513
v -0.131028 2.238474 -0.159513
v -0.011783 2.207782 -0.138291
v 0.155742 2.672609 -0.357116
v -0.011783 2.686984 -0.396094
v -0.179308 2.672609 -0.357116
v 0.118043 2.152651 -0.440627
v 0.177673 2.022525 -0.471207
v -0.201239 2.022525 -0.471207
v -0.141609 2.152651 -0.440627
v -0.011783 2.109427 -0.412064
v -0.011783 1.979480 -0.420547
v -0.011783 2.487530 -0.646560
v 0.137339 2.464773 -0.626310
v 0.278247 2.463062 -0.856248
v -0.011783 2.555038 -0.913528
v -0.301812 2.463062 -0.856248
v -0.160905 2.464773 -0.626310
v 0.379075 2.399918 -1.123752
v -0.011783 2.519617 -1.188398
v -0.402641 2.399918 -1.123752
v 0.247663 1.774704 -0.571558
v -0.271228 1.774704 -0.571558
v -0.011783 1.700225 -0.507234
v 0.254892 1.503936 -0.900176
v -0.278458 1.503936 -0.900176
v -0.011783 1.422977 -0.853278
v 0.378896 2.086201 -1.426556
v -0.011783 2.195871 -1.499578
v -0.402462 2.086201 -1.426556
v 0.250562 1.728391 -1.552374
v -0.011783 1.789027 -1.608100
v -0.274127 1.728391 -1.552374
v 0.162635 1.377163 -1.259274
v -0.186201 1.377163 -1.259274
v -0.011783 1.327589 -1.242520
v 0.032109 1.326764 -1.499731
v -0.055675 1.326764 -1.499731
v -0.011783 1.315790 -1.492704
v 0.051943 1.421356 -1.574447
v -0.011783 1.438297 -1.586410
v -0.075509 1.421356 -1.574447
v -0.006248 1.237177 -1.683796
v -0.011783 1.239648 -1.684021
v -0.017317 1.237177 -1.683796
v -0.007096 1.226870 -1.675135
v -0.016469 1.226871 -1.675135
v -0.011783 1.226545 -1.673594
v 0.154808 2.633946 -0.493426
v -0.178374 2.633946 -0.493426
v -0.011783 2.667762 -0.518399
v -0.011783 2.137502 -0.268482
v 0.107886 2.172304 -0.282799
v -0.131452 2.172304 -0.282799
v 0.233281 3.029021 0.177855
v 0.236795 3.018027 0.106548
v -0.256847 3.029021 0.177855
v -0.260360 3.018027 0.106548
v 0.274486 3.014278 0.178201
v -0.298052 3.014278 0.178201
v 0.279443 3.006348 0.113127
v -0.303009 3.006348 0.113127
v 0.388197 3.308258 0.151639
v 0.385103 3.294686 0.189693
v -0.411763 3.308258 0.151639
v -0.408668 3.294686 0.189693
v 0.361574 3.316509 0.151232
v -0.385140 3.316509 0.151232
v 0.359381 3.302908 0.193568
v -0.382947 3.302908 0.193568
v 0.436371 3.455433 0.303923
v 0.438725 3.481932 0.265524
v -0.459937 3.455433 0.303923
v -0.462291 3.481932 0.265524
v 0.463973 3.448349 0.297539
v -0.487538 3.448350 0.297539
v 0.467293 3.473521 0.263430
v -0.490859 3.473521 0.263430
v 0.592269 3.670172 0.570711
v 0.589273 3.634384 0.591541
v -0.615835 3.670172 0.570711
v -0.612839 3.634384 0.591541
v 0.565142 3.676074 0.576316
v -0.588708 3.676074 0.576316
v 0.562715 3.638825 0.599296
v -0.586281 3.638825 0.599296
vt 0.220584 0.009554
vt 0.220584 0.541190
vt 0.006589 0.541190
vt 0.006589 0.009554
vt 0.693900 0.332490
vt 0.696720 0.375640
vt 0.761770 0.341420
vt 0.732020 0.286390
vt 0.488460 0.341420
vt 0.552760 0.375640
vt 0.555770 0.332490
vt 0.518540 0.286390
vt 0.672360 0.302910
vt 0.685500 0.269970
vt 0.577160 0.302910
vt 0.564410 0.269970
vt 0.783630 0.271050
vt 0.741220 0.221340
vt 0.510260 0.221340
vt 0.467950 0.271050
vt 0.696830 0.232380
vt 0.553540 0.232380
vt 0.707570 0.413710
vt 0.763720 0.395750
vt 0.541800 0.413710
vt 0.486020 0.395750
vt 0.711250 0.457770
vt 0.782580 0.438130
vt 0.537920 0.457770
vt 0.466880 0.438130
vt 0.809520 0.538360
vt 0.746250 0.541160
vt 0.743850 0.588730
vt 0.812120 0.607500
vt 0.505040 0.588730
vt 0.502720 0.541170
vt 0.439520 0.538360
vt 0.436770 0.607500
vt 0.744080 0.658230
vt 0.818880 0.689350
vt 0.504730 0.658230
vt 0.429900 0.689360
vt 0.733580 0.764240
vt 0.794910 0.794820
vt 0.515150 0.764240
vt 0.453800 0.794820
vt 0.714580 0.858270
vt 0.748540 0.880960
vt 0.534100 0.858270
vt 0.500130 0.880960
vt 0.659550 0.942260
vt 0.674120 0.950260
vt 0.589090 0.942260
vt 0.574490 0.950260
vt 0.629010 0.989590
vt 0.630070 0.991280
vt 0.619540 0.989640
vt 0.618480 0.991320
vt 0.716480 0.496260
vt 0.797970 0.477150
vt 0.451290 0.477150
vt 0.532560 0.496270
vt 0.652050 0.257900
vt 0.647410 0.302730
vt 0.601690 0.302730
vt 0.597230 0.257900
vt 0.624340 0.250570
vt 0.624340 0.299610
vt 0.666740 0.212390
vt 0.582990 0.212390
vt 0.624340 0.203330
vt 0.804340 0.351830
vt 0.818800 0.283130
vt 0.432620 0.283130
vt 0.445880 0.351830
vt 0.848010 0.355000
vt 0.857420 0.309920
vt 0.392960 0.309930
vt 0.402050 0.355000
vt 0.651600 0.351420
vt 0.655790 0.395570
vt 0.593240 0.395570
vt 0.597470 0.351410
vt 0.624340 0.353260
vt 0.624340 0.403500
vt 0.903970 0.253200
vt 0.870300 0.230260
vt 0.382130 0.230280
vt 0.346020 0.253220
vt 0.703700 0.171680
vt 0.624340 0.154650
vt 0.547040 0.171680
vt 0.810020 0.391420
vt 0.852380 0.386250
vt 0.439810 0.391420
vt 0.397440 0.386250
vt 0.664790 0.423420
vt 0.584250 0.423420
vt 0.624340 0.426360
vt 0.661620 0.466800
vt 0.587300 0.466800
vt 0.624340 0.466920
vt 0.828100 0.433430
vt 0.876380 0.427290
vt 0.421420 0.433440
vt 0.373110 0.427290
vt 0.686820 0.543150
vt 0.686740 0.578070
vt 0.562080 0.578070
vt 0.562040 0.543150
vt 0.624340 0.545960
vt 0.624340 0.575410
vt 0.901300 0.524560
vt 0.855310 0.534730
vt 0.882540 0.614110
vt 0.968410 0.609270
vt 0.366300 0.614120
vt 0.393720 0.534740
vt 0.347650 0.524560
vt 0.280310 0.609270
vt 0.895000 0.697620
vt 0.998040 0.713300
vt 0.353740 0.697630
vt 0.250640 0.713300
vt 0.684830 0.647210
vt 0.563930 0.647210
vt 0.624340 0.643860
vt 0.679310 0.758110
vt 0.569410 0.758110
vt 0.624340 0.756770
vt 0.862960 0.815420
vt 0.949670 0.866310
vt 0.385740 0.815430
vt 0.299020 0.866310
vt 0.789830 0.903010
vt 0.828730 0.958660
vt 0.458840 0.903020
vt 0.419950 0.958660
vt 0.665700 0.863620
vt 0.582990 0.863620
vt 0.624340 0.866660
vt 0.640900 0.941830
vt 0.607760 0.941830
vt 0.624340 0.941890
vt 0.687630 0.959630
vt 0.696650 0.976750
vt 0.560970 0.959630
vt 0.551990 0.976750
vt 0.624700 0.996720
vt 0.624340 0.998040
vt 0.623840 0.996750
vt 0.625280 0.993970
vt 0.623260 0.994020
vt 0.624340 0.993480
vt 0.844880 0.471510
vt 0.404400 0.471510
vt 0.890930 0.461820
vt 0.358300 0.461820
vt 0.624340 0.506150
vt 0.665240 0.504630
vt 0.583620 0.504630
vt 0.831010 0.221080
vt 0.811340 0.225790
vt 0.423530 0.221110
vt 0.442360 0.225800
vt 0.781070 0.203960
vt 0.772890 0.193320
vt 0.471780 0.203970
vt 0.479740 0.193320
vt 0.798150 0.219940
vt 0.455150 0.219940
vt 0.839620 0.137100
vt 0.828670 0.132020
vt 0.415620 0.137200
vt 0.425210 0.132250
vt 0.847860 0.141230
vt 0.409230 0.141340
vt 0.821980 0.127680
vt 0.431400 0.127910
vt 0.864130 0.146220
vt 0.398310 0.146340
vt 0.880470 0.103910
vt 0.869090 0.097390
vt 0.368040 0.098450
vt 0.379770 0.092690
vt 0.869010 0.138300
vt 0.886030 0.109440
vt 0.361450 0.103270
vt 0.390880 0.149080
vt 0.863210 0.091040
vt 0.385590 0.086700
vt 0.856040 0.081710
vt 0.392700 0.077740
vt 0.937040 0.017160
vt 0.929000 0.008820
vt 0.309020 0.010120
vt 0.317200 0.001950
vt 0.940210 0.023680
vt 0.305840 0.016560
vt 0.953790 0.035000
vt 0.948000 0.031600
vt 0.291990 0.027630
vt 0.297900 0.024320
vn -0.662045 0.697300 -0.274715
vn 0.597227 0.753559 -0.274715
vn 0.662045 -0.697300 0.274715
vn -0.597227 -0.753559 0.274715
vn 0.710166 -0.702994 -0.037660
vn 0.715140 -0.696036 -0.063753
vn 0.909055 0.034272 -0.415235
vn 0.981536 -0.186193 0.043062
vn -0.909055 0.034272 -0.415235
vn -0.715140 -0.696036 -0.063753
vn -0.710166 -0.702994 -0.037660
vn -0.981536 -0.186193 0.043062
vn 0.704733 -0.658162 0.264748
vn 0.849086 -0.168767 0.500534
vn -0.704733 -0.658162 0.264748
vn -0.849086 -0.168767 0.500534
vn 0.812189 0.299173 -0.500809
vn 0.840175 0.415113 0.348918
vn -0.840175 0.415082 0.348918
vn -0.812189 0.299173 -0.500809
vn 0.701590 0.441206 0.559496
vn -0.701590 0.441237 0.559496
vn 0.776788 -0.480850 0.406629
vn 0.958617 0.284585 0.001648
vn -0.776788 -0.480850 0.406629
vn -0.958617 0.284585 0.001648
vn 0.803095 -0.326456 0.498398
vn 0.906400 0.398267 0.140568
vn -0.803095 -0.326456 0.498398
vn -0.906400 0.398267 0.140568
vn 0.941923 0.333018 0.042695
vn 0.898068 -0.221534 0.379955
vn 0.721000 0.074343 0.688894
vn 0.793725 0.430280 0.429884
vn -0.721000 0.074343 0.688894
vn -0.898068 -0.221534 0.379955
vn -0.941923 0.333018 0.042695
vn -0.793725 0.430280 0.429884
vn 0.838221 -0.177282 0.515671
vn 0.958190 0.245796 0.146245
vn -0.838221 -0.177282 0.515671
vn -0.958190 0.245796 0.146245
vn 0.836787 -0.520646 0.169317
vn 0.950987 -0.093539 -0.294687
vn -0.836787 -0.520646 0.169317
vn -0.950987 -0.093539 -0.294687
vn 0.692221 -0.702902 -0.163427
vn 0.736320 -0.352184 -0.577715
vn -0.692221 -0.702902 -0.163427
vn -0.736320 -0.352184 -0.577715
vn 0.728477 -0.668142 -0.151067
vn 0.773675 -0.276101 -0.570208
vn -0.728477 -0.668172 -0.151067
vn -0.773675 -0.276101 -0.570208
vn 0.876034 -0.477767 -0.065371
vn 0.914487 -0.173284 -0.365551
vn -0.876003 -0.477798 -0.065401
vn -0.914487 -0.173315 -0.365581
vn 0.868923 -0.488479 0.079379
vn 0.939634 0.211798 -0.268685
vn -0.939634 0.211798 -0.268685
vn -0.868923 -0.488479 0.079379
vn 0.578997 -0.140385 0.803125
vn 0.499741 -0.781854 0.372723
vn -0.499741 -0.781854 0.372723
vn -0.578997 -0.140385 0.803125
vn 0.000000 -0.140019 0.990143
vn 0.000000 -0.893002 0.450026
vn 0.417676 0.612537 0.671041
vn -0.417676 0.612537 0.671041
vn 0.000000 0.695303 0.718680
vn 0.437696 0.586108 -0.681814
vn 0.142033 0.721335 -0.677847
vn -0.142033 0.721335 -0.677847
vn -0.437696 0.586108 -0.681814
vn 0.000000 0.700888 -0.713218
vn 0.000000 0.852748 -0.522294
vn 0.439985 -0.897305 -0.034394
vn 0.409162 -0.912320 0.014924
vn -0.409162 -0.912320 0.014924
vn -0.439985 -0.897305 -0.034394
vn 0.000000 -0.999756 -0.021393
vn 0.000000 -0.999878 0.013916
vn 0.000000 0.981353 0.192145
vn 0.075350 0.926206 0.369366
vn -0.075350 0.926206 0.369366
vn 0.441328 0.861293 -0.251686
vn 0.000000 0.958953 -0.283486
vn -0.441328 0.861293 -0.251686
vn 0.374798 -0.704489 0.602619
vn -0.374798 -0.704489 0.602619
vn 0.000000 -0.758202 0.651967
vn 0.397809 -0.598376 0.695425
vn -0.397809 -0.598376 0.695425
vn 0.000000 -0.653523 0.756859
vn 0.413160 0.908261 -0.065706
vn 0.000000 0.995270 -0.096988
vn -0.413160 0.908261 -0.065706
vn 0.577288 -0.546495 0.606677
vn 0.467483 -0.107028 0.877468
vn -0.467483 -0.107028 0.877468
vn -0.577288 -0.546495 0.606677
vn 0.000000 -0.672781 0.739830
vn 0.000000 -0.192175 0.981353
vn 0.000000 0.931608 -0.363445
vn 0.537858 0.796747 -0.275430
vn 0.518601 0.842677 0.144627
vn 0.000000 0.999207 0.039552
vn -0.518601 0.842677 0.144627
vn -0.537858 0.796747 -0.275430
vn 0.642506 0.714072 -0.277871
vn 0.000000 0.895260 -0.445509
vn -0.642506 0.714072 -0.277871
vn 0.533372 -0.433699 0.726218
vn -0.533372 -0.433699 0.726218
vn 0.000000 -0.557390 0.830226
vn 0.506943 -0.772301 0.382733
vn -0.506943 -0.772301 0.382733
vn 0.000000 -0.893155 0.449721
vn 0.590838 0.330638 -0.735893
vn 0.000000 0.487075 -0.873318
vn -0.590838 0.330638 -0.735893
vn 0.443281 -0.033082 -0.895749
vn 0.000000 0.097903 -0.995178
vn -0.443281 -0.033082 -0.895749
vn 0.426008 -0.900204 0.090060
vn -0.426008 -0.900204 0.090060
vn 0.000000 -0.988708 0.149815
vn 0.426954 -0.887692 0.172277
vn -0.426954 -0.887692 0.172277
vn 0.000000 -0.967467 0.252907
vn 0.482376 0.049928 -0.874508
vn 0.000000 0.196112 -0.980560
vn -0.482376 0.049928 -0.874508
vn 0.585681 -0.130009 -0.800012
vn 0.000000 -0.113376 -0.993530
vn -0.585681 -0.130009 -0.800012
vn 0.531175 -0.842891 -0.085757
vn -0.531144 -0.842891 -0.085757
vn 0.000000 -0.975463 -0.220069
vn 0.485702 0.716300 -0.500961
vn -0.485733 0.716300 -0.500961
vn 0.000000 0.837519 -0.546342
vn 0.000000 -0.945402 0.325816
vn 0.478988 -0.836695 0.265450
vn -0.478988 -0.836695 0.265450
vn -0.528367 0.572893 0.626545
vn -0.431501 0.522904 -0.735069
vn 0.528367 0.572893 0.626545
vn 0.431501 0.522904 -0.735069
vn 0.768731 0.063784 0.636341
vn -0.768731 0.063784 0.636341
vn 0.804651 0.050691 -0.591571
vn -0.804651 0.050691 -0.591571
vn 0.742119 -0.043825 -0.668813
vn 0.645161 -0.471114 0.601489
vn -0.742119 -0.043855 -0.668783
vn -0.645161 -0.471114 0.601489
vn -0.581072 0.502335 -0.640278
vn 0.581072 0.502335 -0.640278
vn -0.689474 0.046999 0.722739
vn 0.689474 0.046999 0.722739
vn -0.713584 -0.291665 0.636921
vn -0.581103 0.714866 -0.388867
vn 0.713584 -0.291665 0.636921
vn 0.581103 0.714866 -0.388867
vn 0.615467 -0.705771 0.350719
vn -0.615467 -0.705771 0.350719
vn 0.750145 0.238044 -0.616901
vn -0.750145 0.238044 -0.616901
vn 0.805139 0.592242 0.031129
vn 0.668355 -0.362865 0.649281
vn -0.805139 0.592212 0.031129
vn -0.668355 -0.362865 0.649281
vn -0.295969 0.913663 0.278542
vn 0.295969 0.913663 0.278542
vn -0.391003 -0.049837 0.919004
vn 0.391003 -0.049837 0.919004
g Bee_Wings_Plane_Plane.002_Wings_WingsColorMap
usemtl Wings_WingsColorMap
s off
f 1/1/1 3/2/1 5/3/1 7/4/1
f 6/3/2 4/2/2 2/1/2 8/4/2
f 9/1/3 11/4/3 13/3/3 15/2/3
f 14/3/4 12/4/4 10/1/4 16/2/4
g Bee_Wings_Plane_Plane.002_Wings_beecolormap.png
usemtl Wings_beecolormap.png
s 1
f 17/5/5 18/6/6 19/7/7 20/8/8
f 21/9/9 22/10/10 23/11/11 24/12/12
f 25/13/13 17/5/5 20/8/8 26/14/14
f 27/15/15 28/16/16 24/12/12 23/11/11
f 29/17/17 30/18/18 20/8/8 19/7/7
f 24/12/12 31/19/19 32/20/20 21/9/9
f 30/18/18 33/21/21 26/14/14 20/8/8
f 28/16/16 34/22/22 31/19/19 24/12/12
f 19/7/7 18/6/6 35/23/23 36/24/24
f 37/25/25 22/10/10 21/9/9 38/26/26
f 36/24/24 35/23/23 39/27/27 40/28/28
f 41/29/29 37/25/25 38/26/26 42/30/30
f 43/31/31 44/32/32 45/33/33 46/34/34
f 47/35/35 48/36/36 49/37/37 50/38/38
f 46/34/34 45/33/33 51/39/39 52/40/40
f 53/41/41 47/35/35 50/38/38 54/42/42
f 52/40/40 51/39/39 55/43/43 56/44/44
f 57/45/45 53/41/41 54/42/42 58/46/46
f 56/44/44 55/43/43 59/47/47 60/48/48
f 61/49/49 57/45/45 58/46/46 62/50/50
f 60/48/48 59/47/47 63/51/51 64/52/52
f 65/53/53 61/49/49 62/50/50 66/54/54
f 64/52/52 63/51/51 67/55/55 68/56/56
f 69/57/57 65/53/53 66/54/54 70/58/58
f 39/27/27 71/59/59 72/60/60 40/28/28
f 73/61/61 74/62/62 41/29/29 42/30/30
f 71/59/59 44/32/32 43/31/31 72/60/60
f 49/37/37 48/36/36 74/62/62 73/61/61
f 26/14/14 75/63/63 76/64/64 25/13/13
f 77/65/65 78/66/66 28/16/16 27/15/15
f 75/63/63 79/67/67 80/68/68 76/64/64
f 80/68/68 79/67/67 78/66/66 77/65/65
f 33/21/21 81/69/69 75/63/63 26/14/14
f 78/66/66 82/70/70 34/22/22 28/16/16
f 81/69/69 83/71/71 79/67/67 75/63/63
f 79/67/67 83/71/71 82/70/70 78/66/66
f 19/7/7 84/72/72 85/73/73 29/17/17
f 86/74/74 87/75/75 21/9/9 32/20/20
f 84/72/72 88/76/76 89/77/77 85/73/73
f 89/78/77 88/79/76 87/75/75 86/74/74
f 17/5/5 90/80/78 91/81/79 18/6/6
f 23/11/11 22/10/10 92/82/80 93/83/81
f 90/80/78 94/84/82 95/85/83 91/81/79
f 95/85/83 94/84/82 93/83/81 92/82/80
f 90/80/78 17/5/5 25/13/13 76/64/64
f 93/83/81 77/65/65 27/15/15 23/11/11
f 76/64/64 80/68/68 94/84/82 90/80/78
f 94/84/82 80/68/68 77/65/65 93/83/81
f 96/86/84 97/87/85 85/73/73 89/77/77
f 86/74/74 98/88/86 96/89/84 89/78/77
f 83/71/71 81/69/69 97/90/85 96/91/84
f 98/92/86 82/70/70 83/71/71 96/91/84
f 81/69/69 33/21/21 30/18/18 97/90/85
f 31/19/19 34/22/22 82/70/70 98/92/86
f 88/76/76 84/72/72 99/93/87 100/94/88
f 101/95/89 87/75/75 88/79/76 100/96/88
f 84/72/72 19/7/7 36/24/24 99/93/87
f 38/26/26 21/9/9 87/75/75 101/95/89
f 18/6/6 91/81/79 102/97/90 35/23/23
f 103/98/91 92/82/80 22/10/10 37/25/25
f 91/81/79 95/85/83 104/99/92 102/97/90
f 104/99/92 95/85/83 92/82/80 103/98/91
f 35/23/23 102/97/90 105/100/93 39/27/27
f 106/101/94 103/98/91 37/25/25 41/29/29
f 102/97/90 104/99/92 107/102/95 105/100/93
f 107/102/95 104/99/92 103/98/91 106/101/94
f 100/94/88 99/93/87 108/103/96 109/104/97
f 110/105/98 101/95/89 100/96/88 109/106/97
f 99/93/87 36/24/24 40/28/28 108/103/96
f 42/30/30 38/26/26 101/95/89 110/105/98
f 44/32/32 111/107/99 112/108/100 45/33/33
f 113/109/101 114/110/102 48/36/36 47/35/35
f 111/107/99 115/111/103 116/112/104 112/108/100
f 116/112/104 115/111/103 114/110/102 113/109/101
f 117/113/105 118/114/106 119/115/107 120/116/108
f 121/117/109 122/118/110 117/119/105 120/120/108
f 118/114/106 43/31/31 46/34/34 119/115/107
f 50/38/38 49/37/37 122/118/110 121/117/109
f 120/116/108 119/115/107 123/121/111 124/122/112
f 125/123/113 121/117/109 120/120/108 124/124/112
f 119/115/107 46/34/34 52/40/40 123/121/111
f 54/42/42 50/38/38 121/117/109 125/123/113
f 45/33/33 112/108/100 126/125/114 51/39/39
f 127/126/115 113/109/101 47/35/35 53/41/41
f 112/108/100 116/112/104 128/127/116 126/125/114
f 128/127/116 116/112/104 113/109/101 127/126/115
f 51/39/39 126/125/114 129/128/117 55/43/43
f 130/129/118 127/126/115 53/41/41 57/45/45
f 126/125/114 128/127/116 131/130/119 129/128/117
f 131/130/119 128/127/116 127/126/115 130/129/118
f 124/122/112 123/121/111 132/131/120 133/132/121
f 134/133/122 125/123/113 124/124/112 133/134/121
f 123/121/111 52/40/40 56/44/44 132/131/120
f 58/46/46 54/42/42 125/123/113 134/133/122
f 133/132/121 132/131/120 135/135/123 136/136/124
f 137/137/125 134/133/122 133/134/121 136/138/124
f 132/131/120 56/44/44 60/48/48 135/135/123
f 62/50/50 58/46/46 134/133/122 137/137/125
f 55/43/43 129/128/117 138/139/126 59/47/47
f 139/140/127 130/129/118 57/45/45 61/49/49
f 129/128/117 131/130/119 140/141/128 138/139/126
f 140/141/128 131/130/119 130/129/118 139/140/127
f 59/47/47 138/139/126 141/142/129 63/51/51
f 142/143/130 139/140/127 61/49/49 65/53/53
f 138/139/126 140/141/128 143/144/131 141/142/129
f 143/144/131 140/141/128 139/140/127 142/143/130
f 136/136/124 135/135/123 144/145/132 145/146/133
f 146/147/134 137/137/125 136/138/124 145/148/133
f 135/135/123 60/48/48 64/52/52 144/145/132
f 66/54/54 62/50/50 137/137/125 146/147/134
f 145/146/133 144/145/132 147/149/135 148/150/136
f 149/151/137 146/147/134 145/148/133 148/150/136
f 144/145/132 64/52/52 68/56/56 147/149/135
f 70/58/58 66/54/54 146/147/134 149/151/137
f 63/51/51 141/142/129 150/152/138 67/55/55
f 151/153/139 142/143/130 65/53/53 69/57/57
f 141/142/129 143/144/131 152/154/140 150/152/138
f 152/154/140 143/144/131 142/143/130 151/153/139
f 67/55/55 150/152/138 147/149/135 68/56/56
f 149/151/137 151/153/139 69/57/57 70/58/58
f 150/152/138 152/154/140 148/150/136 147/149/135
f 148/150/136 152/154/140 151/153/139 149/151/137
f 72/60/60 153/155/141 108/103/96 40/28/28
f 110/105/98 154/156/142 73/61/61 42/30/30
f 153/155/141 155/157/143 109/104/97 108/103/96
f 109/106/97 155/158/143 154/156/142 110/105/98
f 43/31/31 118/114/106 153/155/141 72/60/60
f 154/156/142 122/118/110 49/37/37 73/61/61
f 118/114/106 117/113/105 155/157/143 153/155/141
f 155/158/143 117/119/105 122/118/110 154/156/142
f 156/159/144 157/160/145 105/100/93 107/102/95
f 106/101/94 158/161/146 156/159/144 107/102/95
f 157/160/145 71/59/59 39/27/27 105/100/93
f 41/29/29 74/62/62 158/161/146 106/101/94
f 115/111/103 111/107/99 157/160/145 156/159/144
f 158/161/146 114/110/102 115/111/103 156/159/144
f 111/107/99 44/32/32 71/59/59 157/160/145
f 74/62/62 48/36/36 114/110/102 158/161/146
f 85/73/73 97/87/85 159/162/147 160/163/148
f 161/164/149 98/88/86 86/74/74 162/165/150
f 97/90/85 30/18/18 163/166/151 159/167/147
f 164/168/152 31/19/19 98/92/86 161/169/149
f 29/17/17 85/73/73 160/163/148 165/170/153
f 162/165/150 86/74/74 32/20/20 166/171/154
f 30/18/18 29/17/17 165/170/153 163/166/151
f 166/171/154 32/20/20 31/19/19 164/168/152
f 163/166/151 165/170/153 167/172/155 168/173/156
f 169/174/157 166/171/154 164/168/152 170/175/158
f 165/170/153 160/163/148 171/176/159 167/172/155
f 172/177/160 162/165/150 166/171/154 169/174/157
f 159/167/147 163/166/151 168/173/156 173/178/161
f 170/175/158 164/168/152 161/169/149 174/179/162
f 160/163/148 159/162/147 173/180/161 171/176/159
f 174/181/162 161/164/149 162/165/150 172/177/160
f 171/176/159 173/180/161 175/182/163 176/183/164
f 177/184/165 174/181/162 172/177/160 178/185/166
f 173/180/161 168/186/156 179/187/167 175/182/163
f 180/188/168 170/189/158 174/181/162 177/184/165
f 167/172/155 171/176/159 176/183/164 181/190/169
f 178/185/166 172/177/160 169/174/157 182/191/170
f 168/173/156 167/172/155 181/190/169 179/192/167
f 182/191/170 169/174/157 170/175/158 180/193/168
f 179/192/167 181/190/169 183/194/171 184/195/172
f 185/196/173 182/191/170 180/193/168 186/197/174
f 181/190/169 176/183/164 187/198/175 183/194/171
f 188/199/176 178/185/166 182/191/170 185/196/173
f 175/182/163 179/187/167 184/200/172 189/201/177
f 186/202/174 180/188/168 177/184/165 190/203/178
f 176/183/164 175/182/163 189/201/177 187/198/175
f 190/203/178 177/184/165 178/185/166 188/199/176
f 189/201/177 184/200/172 183/194/171 187/198/175
f 185/196/173 186/202/174 190/203/178 188/199/176
