# Blender v2.75 (sub 0) OBJ File: ''
# www.blender.org
mtllib collisionHull.mtl
o Cone
v 0.000000 0.000000 -0.020000
v 0.003902 0.000000 -0.019616
v 0.007654 0.000000 -0.018478
v 0.011111 0.000000 -0.016629
v 0.014142 0.000000 -0.014142
v 0.016629 0.000000 -0.011111
v 0.018478 0.000000 -0.007654
v 0.019616 0.000000 -0.003902
v 0.020000 0.000000 -0.000000
v 0.000000 0.080000 0.000000
v 0.019616 0.000000 0.003902
v 0.018478 0.000000 0.007654
v 0.016629 0.000000 0.011111
v 0.014142 0.000000 0.014142
v 0.011111 0.000000 0.016629
v 0.007654 0.000000 0.018478
v 0.003902 0.000000 0.019616
v -0.000000 0.000000 0.020000
v -0.003902 0.000000 0.019616
v -0.007654 0.000000 0.018478
v -0.011111 0.000000 0.016629
v -0.014142 0.000000 0.014142
v -0.016629 0.000000 0.011111
v -0.018478 0.000000 0.007654
v -0.019616 0.000000 0.003902
v -0.020000 0.000000 -0.000000
v -0.019616 0.000000 -0.003902
v -0.018478 0.000000 -0.007654
v -0.016629 0.000000 -0.011111
v -0.014142 0.000000 -0.014142
v -0.011111 0.000000 -0.016629
v -0.007654 0.000000 -0.018478
v -0.003902 0.000000 -0.019616
vn -0.281700 0.241400 -0.928600
vn 0.095100 0.241400 -0.965700
vn -0.457500 0.241400 -0.855800
vn -0.615600 0.241400 -0.750100
vn -0.750100 0.241400 -0.615600
vn -0.855800 0.241400 -0.457500
vn -0.928600 0.241400 -0.281700
vn -0.965700 0.241400 -0.095100
vn -0.965700 0.241400 0.095100
vn -0.928600 0.241400 0.281700
vn -0.855800 0.241400 0.457500
vn -0.750100 0.241400 0.615600
vn -0.615600 0.241400 0.750100
vn -0.457500 0.241400 0.855800
vn -0.281700 0.241400 0.928600
vn -0.095100 0.241400 0.965700
vn 0.095100 0.241400 0.965700
vn 0.281700 0.241400 0.928600
vn 0.457500 0.241400 0.855800
vn 0.615600 0.241400 0.750100
vn 0.750100 0.241400 0.615600
vn 0.855800 0.241400 0.457500
vn 0.928600 0.241400 0.281700
vn 0.965700 0.241400 0.095100
vn 0.965700 0.241400 -0.095100
vn 0.928600 0.241400 -0.281700
vn 0.855800 0.241400 -0.457500
vn 0.750100 0.241400 -0.615600
vn 0.615600 0.241400 -0.750100
vn 0.457500 0.241400 -0.855800
vn -0.095100 0.241400 -0.965700
vn 0.281700 0.241400 -0.928600
vn 0.000000 -1.000000 0.000000
usemtl None
s off
f 32//1 10//1 33//1
f 1//2 10//2 2//2
f 31//3 10//3 32//3
f 30//4 10//4 31//4
f 29//5 10//5 30//5
f 28//6 10//6 29//6
f 27//7 10//7 28//7
f 26//8 10//8 27//8
f 25//9 10//9 26//9
f 24//10 10//10 25//10
f 23//11 10//11 24//11
f 22//12 10//12 23//12
f 21//13 10//13 22//13
f 20//14 10//14 21//14
f 19//15 10//15 20//15
f 18//16 10//16 19//16
f 17//17 10//17 18//17
f 16//18 10//18 17//18
f 15//19 10//19 16//19
f 14//20 10//20 15//20
f 13//21 10//21 14//21
f 12//22 10//22 13//22
f 11//23 10//23 12//23
f 9//24 10//24 11//24
f 8//25 10//25 9//25
f 7//26 10//26 8//26
f 6//27 10//27 7//27
f 5//28 10//28 6//28
f 4//29 10//29 5//29
f 3//30 10//30 4//30
f 33//31 10//31 1//31
f 2//32 10//32 3//32
f 1//33 2//33 3//33 4//33 5//33 6//33 7//33 8//33 9//33 11//33 12//33 13//33 14//33 15//33 16//33 17//33 18//33 19//33 20//33 21//33 22//33 23//33 24//33 25//33 26//33 27//33 28//33 29//33 30//33 31//33 32//33 33//33
